<?xml version="1.0" encoding="UTF-8" standalone="no"?>
<!-- Created with Inkscape (http://www.inkscape.org/) -->

<svg
   width="128mm"
   height="128mm"
   viewBox="0 0 128 128"
   version="1.1"
   id="svg1"
   xml:space="preserve"
   xmlns="http://www.w3.org/2000/svg"
   xmlns:svg="http://www.w3.org/2000/svg"><defs
     id="defs1" /><g
     id="layer1"><g
       id="g4"
       transform="matrix(0.33161938,0,0,0.35883024,-84.113083,58.107069)"><path
         style="fill:#e4b8a2"
         d="m 323.05663,187.27248 c -2.04725,-2.26219 -6.8971,-14.89765 -8.35629,-21.77093 -5.14729,-24.24535 -1.41203,-43.90127 14.52705,-76.445173 11.25205,-22.974062 15.00399,-33.976624 15.47354,-45.37604 l 0.11988,-2.910416 -0.37054,2.248958 c -2.46694,14.972929 -6.5737,25.3847 -16.46738,41.749253 -12.67371,20.962858 -16.81766,30.740858 -19.1259,45.129198 -2.87446,17.91785 1.04872,37.13896 11.00329,53.90908 3.75097,6.31912 -2.1242,0.79793 -7.11417,-6.68555 -16.45934,-24.68413 -13.43727,-54.47565 9.14802,-90.18115 11.73953,-18.559224 15.43314,-26.445952 18.46305,-39.422915 3.56437,-15.266004 3.43721,-26.816409 -0.5521,-50.1514014 -8.65534,-50.6282616 0.61566,-82.0051436 32.60722,-110.3562936 1.94695,-1.7254 4.50306,-3.94974 5.68025,-4.94298 1.17719,-0.99324 4.26622,-4.02174 6.86451,-6.72999 19.3023,-20.1192 40.47375,-25.39631 57.26297,-14.27314 0.66473,0.4404 0.70142,0.43169 1.5875,-0.3766 8.7207,-7.95522 23.3541,-10.08098 35.56745,-5.16682 21.59289,8.68811 38.40626,29.60299 41.93516,52.164941 0.60727,3.882555 1.71214,8.065629 2.21776,8.396469 1.22891,0.804115 4.81686,-0.07814 6.56701,-1.614788 1.66734,-1.463948 2.28029,-0.955454 1.25971,1.045045 -0.97377,1.908743 -2.94478,3.495301 -5.34683,4.303921 -0.80507,0.271016 -0.53852,0.553878 2.77812,2.948044 5.92991,4.280597 7.02702,5.174471 9.40873,7.665778 4.74356,4.961856 8.27288,11.568458 11.01797,20.624758 0.5226,1.724102 1.01409,3.238136 1.0922,3.364521 0.0781,0.126385 2.30788,0.237994 4.95505,0.24802 15.98851,0.06055 15.62647,-0.07748 17.30157,6.596354 0.49309,1.964531 1.43692,5.464822 2.09741,7.778424 1.94762,6.822283 0.35528,8.575725 -11.8966,13.100229 -1.72232,0.636035 -3.18847,1.304926 -3.25812,1.486423 -0.25718,0.670221 1.82963,9.842196 3.21005,14.1087962 2.86604,8.8583612 3.0272,12.5434958 0.7472,17.0853598 -2.31395,4.609484 -5.3832,7.27852 -12.22385,10.629916 -3.70369,1.814528 -3.51824,1.323678 -2.78443,7.36997 0.66337,5.465931 1.71588,9.855373 3.83452,15.991594 0.96543,2.796194 5.34564,11.285514 7.86329,15.239908 8.38533,13.170586 10.13054,15.98231 11.90622,19.182291 17.57869,31.678736 12.98627,65.531996 -11.39312,83.984966 -3.25271,2.462 -3.11547,2.01964 0.82286,-2.65241 20.92165,-24.81935 22.02612,-53.77167 3.27428,-85.830473 -10.41945,-17.81344 -11.36869,-19.017461 -5.36428,-6.804073 14.31357,29.114776 16.66879,49.805216 8.31903,73.082196 -5.0088,13.96326 -17.3302,28.10741 -30.63306,35.16472 -3.15012,1.67117 -3.72352,1.3766 -10.6901,-5.49181 -9.85698,-9.71807 -16.88044,-18.16508 -20.67504,-24.86557 -0.52588,-0.9286 -0.96964,-1.44667 -1.11481,-1.3015 -0.30209,0.30209 -1.60524,7.23602 -2.46848,13.13456 -1.1243,7.68227 -2.39633,4.343 -1.73671,-4.55912 0.64155,-8.65827 1.73312,-13.90837 6.88523,-33.11566 3.11611,-11.617 5.26653,-20.60246 6.71199,-28.045827 1.71689,-8.841063 2.85787,-15.896802 4.40692,-27.252082 0.44666,-3.274219 0.92686,-6.677252 1.06711,-7.562297 0.50039,-3.15775 1.60099,-2.395264 -10.26219,-7.109545 C 471.42092,38.996008 468.63577,37.682044 473.88487,37.347698 498.21155,35.798192 535.43678,28.557822 549.98321,22.546441 561.0585,17.969525 564.2832,11.38263 560.8798,0.28867294 559.02743,-5.7494201 558.43258,-8.2187198 557.53907,-13.579029 c -0.93775,-5.62577 -0.87726,-5.500135 -2.40397,-4.992617 -1.14763,0.381502 -1.14763,0.381502 -1.27992,3.02075 -0.69471,13.8596357 -23.87917,18.6787612 -36.22942,7.5306548 -1.03609,-0.9352341 -0.91882,-0.9051069 -2.13691,-0.5489769 -1.73928,0.5085087 -20.94311,4.8026551 -33.07117,7.3950074 -4.14734,0.88648756 -8.10617,1.73899391 -8.79739,1.89445851 -1.17635,0.26457415 -1.25677,0.33646789 -1.25677,1.12344339 0,3.429813 -10.77907,5.7732295 -12.42334,2.7008874 -0.20134,-0.376217 -0.51175,-0.6840308 -0.68978,-0.6840308 -0.81535,0 -7.17105,1.6634058 -7.52438,1.9692711 -0.67795,0.5868765 -8.31452,2.7849742 -17.59479,5.0644491 -5.0424,1.238546 -4.74441,0.859365 -3.82929,4.872529 0.91161,3.997789 2.32588,9.497538 2.52525,9.820135 0.70065,1.133673 5.81826,-0.846596 7.84059,-3.033936 l 1.24489,-1.34646 2.65463,1.844193 c 1.46004,1.014306 3.99546,2.776995 5.63427,3.917086 1.63881,1.140091 5.06325,3.31889 7.60987,4.841775 5.18523,3.100789 5.76937,3.536373 4.74249,3.536373 -3.05944,0 -9.72549,-3.31565 -16.55763,-8.23566 -2.58042,-1.858226 -2.39247,-1.840595 -4.17177,-0.391335 -1.47241,1.199294 -3.58398,2.142492 -5.47258,2.444491 -1.38676,0.221752 -1.44712,-0.0643 1.70445,8.077848 13.00763,33.605558 15.81155,55.048925 10.07929,77.082773 -7.47537,28.73412 -26.85916,46.50573 -59.77738,54.80563 -20.842,5.25504 -29.25085,8.78619 -40.18782,16.87618 l -2.35241,1.74006 H 334.6516 c -10.39267,0 -11.19617,-0.0328 -11.59497,-0.47347 z M 539.69997,-9.2727157 c 12.13143,-3.0491813 17.35437,-17.5866853 9.92093,-27.6138413 -1.47869,-1.994648 -1.56189,-2.26817 -0.76668,-2.52056 0.71454,-0.226784 0.56971,-1.342376 -0.73394,-5.653587 -4.88769,-16.163655 -9.65737,-23.502843 -19.60209,-30.16205 -0.91122,-0.61018 -2.43576,-1.838124 -3.38786,-2.728766 l -1.73109,-1.619348 -1.77151,0.637212 c -1.48804,0.535248 -2.42774,0.65869 -5.87255,0.771439 l -4.10104,0.134227 2.38125,0.718689 c 1.30969,0.395279 3.69094,0.968493 5.29167,1.273809 6.08802,1.161202 7.92664,3.344932 9.17358,10.895446 0.52965,3.207174 -0.39919,7.050055 -1.38738,5.739979 -0.44922,-0.595537 -0.44922,-0.595537 -0.89209,0.260874 -1.06655,2.062488 -1.66858,0.212249 -1.21428,-3.731898 0.99289,-8.620148 -0.16556,-10.738715 -6.47358,-11.83883 -13.23464,-2.308112 -21.27519,-7.2768 -21.29315,-13.158182 -0.008,-2.4664 0.34825,-2.639432 0.90116,-0.438276 1.01798,4.052613 5.53502,8.58664 7.18786,7.214902 0.31627,-0.262478 1.76718,-0.410817 5.23336,-0.53505 8.41968,-0.301776 12.48049,-1.812911 10.75762,-4.003193 -0.86033,-1.093723 -2.59379,-4.765279 -3.96392,-8.395732 -3.57587,-9.475088 -8.6063,-11.114318 -17.84713,-5.815719 -2.83529,1.625728 -3.21053,1.505939 -3.18627,-1.017179 0.0349,-3.63039 3.20764,-5.91791 8.8441,-6.37653 l 1.98928,-0.16186 -2.3977,-2.0008 c -19.66209,-16.40735 -43.99632,-24.77882 -56.54205,-19.4516 -0.47084,0.19992 -1.98642,0.684 -3.36794,1.07572 -16.94719,4.80518 -25.18214,16.80038 -22.52618,32.812098 0.28966,1.74625 1.12875,6.723905 1.86465,11.061455 3.41793,20.145958 3.08891,32.643477 -1.21951,46.322642 l -0.9904,3.144516 1.15832,4.5284 c 0.63707,2.49062 1.91324,7.323004 2.83592,10.738631 0.92268,3.415627 1.67761,6.421955 1.67761,6.680728 0,0.724636 0.60023,0.636924 10.40168,-1.520003 4.97486,-1.094775 10.47394,-2.293037 12.22019,-2.662804 4.01769,-0.850743 4.27839,-0.961783 4.4869,-1.911104 0.35649,-1.623106 1.56431,-2.271658 5.78247,-3.104975 4.92683,-0.973317 5.60886,-0.896332 6.62795,0.748129 0.25088,0.404819 0.5538,0.675675 0.67317,0.601902 0.11936,-0.07377 2.70374,-0.677104 5.74306,-1.340737 3.03932,-0.663632 6.47853,-1.433558 7.6427,-1.710946 1.16417,-0.277388 8.18563,-1.887955 15.60325,-3.579039 13.3773,-3.049781 14.16237,-3.272904 14.16237,-4.025028 0,-0.214213 0.76267,-1.964473 1.69483,-3.889467 4.4175,-9.122588 9.31693,-13.912511 14.23059,-13.912511 1.04477,0 1.55738,-0.154484 2.23982,-0.675002 3.60933,-2.752976 7.91696,-1.409892 11.19443,3.490335 2.02323,3.024973 1.91301,3.268718 -1.18164,2.613219 -7.30371,-1.547046 -16.65336,2.795938 -19.6413,9.123531 -6.73008,14.252398 5.00545,28.7784192 20.17056,24.9667343 z M 445.73043,-54.071641 c -5.81091,-1.352782 -5.03986,-2.322748 2.52455,-3.17583 11.30183,-1.274571 15.26546,-2.912859 23.05021,-9.527336 5.296,-4.499862 7.52841,-4.655274 4.60903,-0.320863 -6.95089,10.319989 -19.16341,15.589579 -30.18379,13.024029 z m 66.10892,-1.122808 c -1.49511,-1.495107 3.29275,-7.792667 5.33015,-7.010844 0.6162,0.236457 0.5442,1.162234 -0.13288,1.708538 -1.96332,1.584116 -2.69525,2.427324 -3.41369,3.932673 -0.80244,1.681362 -1.18109,1.972128 -1.78358,1.369633 z m -82.8528,-10.883215 c -0.0476,-2.426711 4.3082,-10.310331 8.27071,-14.969322 8.31764,-9.77962 28.05447,-17.225249 32.29662,-12.183747 1.57766,1.874943 0.95131,2.501202 -3.27578,3.275328 -2.03747,0.37313 -7.28059,1.886671 -10.31875,2.97873 -9.12456,3.279803 -18.33415,10.019537 -23.82379,17.434653 -3.51997,4.75459 -3.13208,4.327851 -3.14901,3.464358 z"
         id="path7" /><path
         style="fill:#cb9175"
         d="m 378.17186,170.58773 c 0,-0.2179 2.05912,-1.1505 4.49791,-2.03717 0.65485,-0.23808 2.02407,-0.77422 3.04271,-1.19143 1.01865,-0.4172 4.5252,-1.78288 7.79235,-3.03485 34.58855,-13.25426 50.69542,-33.20118 53.4772,-66.226713 0.65697,-7.799623 -0.1432,-18.935038 -1.99959,-27.826606 -1.21378,-5.813671 -5.17391,-19.392171 -7.57235,-25.964045 -2.26476,-6.205587 -4.73407,-15.176456 -4.73407,-17.198616 0,-0.313423 0.34306,-0.484948 1.23847,-0.619224 2.2485,-0.337182 4.46181,-1.17264 5.97254,-2.254448 1.44386,-1.033928 3.10774,-1.64615 3.10774,-1.143489 0,0.135705 0.47645,0.456945 1.05877,0.713865 0.58232,0.25692 1.21471,0.623069 1.4053,0.813663 0.41866,0.418657 7.54358,5.063888 10.50084,6.846221 3.53995,2.133525 1.81104,2.140848 -2.05672,0.0087 -1.94157,-1.070305 -6.95603,-4.43869 -8.68648,-5.835004 -1.46392,-1.181246 -2.01551,-1.117517 -3.70685,0.428272 -1.44785,1.323254 -3.24857,2.177849 -5.31265,2.521304 -2.04705,0.340622 -2.21134,-0.549321 1.83373,9.932792 5.78929,15.00198 8.7507,24.745041 10.62563,34.958386 6.97961,38.020222 -7.22947,71.295092 -36.9963,86.638062 -8.1714,4.21185 -22.37373,8.87322 -29.01933,9.52448 -0.75294,0.0738 -2.03257,0.36739 -2.84361,0.65245 -1.70563,0.59948 -1.62524,0.58497 -1.62524,0.29339 z m 123.20258,-12.25918 c -0.48873,-1.82495 0.0778,-8.11961 1.18625,-13.18051 1.02696,-4.68881 2.87681,-12.2876 3.92901,-16.13958 1.45019,-5.30894 5.0847,-19.36465 5.91795,-22.88646 0.6463,-2.73163 0.981,-4.36665 2.65392,-12.964582 1.50813,-7.750978 4.23897,-26.131857 5.18878,-34.924998 1.53867,-14.244499 6.84326,-19.955198 18.98891,-28.731198 2.26723,-1.638221 4.9724,-3.145158 8.79509,-5.524595 9.07509,-5.648799 14.80959,-9.128822 14.80862,-16.6764961 -2.6e-4,-1.9773229 -0.18486,-2.7990164 -2.16962,-9.6572912 -1.441,-4.9793164 -2.14067,-8.1282737 -3.05699,-13.7583327 -0.56629,-3.479446 -0.56621,-3.479396 -3.74107,-2.224806 -2.49331,0.985265 -2.6737,0.917652 -2.03097,-0.761221 2.50197,-6.53537 1.77334,-12.971069 -2.04031,-18.021093 -1.21313,-1.606431 -1.30466,-2.121002 -0.3806,-2.139869 1.06232,-0.02169 -2.26763,-11.602803 -5.30029,-18.433652 -2.77689,-6.254754 -6.42576,-11.044611 -12.22835,-16.052088 -1.98623,-1.714059 -0.62184,-1.013573 1.98437,1.01879 6.71018,5.2327 10.71492,11.552459 14.41461,22.747274 1.8026,5.454446 0.97199,4.891098 7.24747,4.915498 15.90621,0.06185 15.04177,-0.320043 17.07091,7.541522 0.71058,2.753014 1.67451,6.292128 2.14207,7.8647 1.55182,5.219395 -0.61014,7.305368 -11.94321,11.523437 -4.099,1.52561 -4.00225,1.454935 -3.79063,2.769064 0.84566,5.251225 1.68221,8.6080761 3.58855,14.39981337 2.68551,8.15900023 2.70213,11.23764763 0.0875,16.21325263 -2.44831,4.659137 -4.20982,5.937319 -17.63112,12.793452 -6.49548,3.318152 -13.89512,9.047243 -16.40201,12.699089 -3.77202,5.494797 -4.94539,10.731347 -8.92979,39.85204 -2.03401,14.865966 -4.79946,27.33445 -11.00312,49.60937 -2.55641,9.1791 -2.69908,9.72084 -3.41435,12.96459 -0.38506,1.74625 -0.8687,3.65125 -1.07475,4.23333 -0.20606,0.58208 -0.80422,3.32052 -1.32924,6.08541 -0.96631,5.08883 -1.24088,5.95419 -1.53762,4.84614 z M 395.19379,38.849573 c -5.90725,-7.942304 -8.89713,-16.778523 -8.88478,-26.257776 0.0112,-8.5755613 2.61517,-13.12195651 12.23576,-21.3628915 22.19086,-19.0085385 28.63979,-39.5235145 22.89751,-72.8403425 -0.51307,-2.976812 -1.282,-7.436448 -1.70873,-9.910302 -2.60272,-15.088401 -2.15858,-23.581341 1.61467,-30.876011 4.35519,-8.41974 14.56052,-11.69152 24.2156,-7.76341 2.10282,0.85552 2.04227,0.94093 -1.47038,2.0742 -17.80105,5.74304 -25.13972,17.59335 -21.9068,35.374596 0.38364,2.110052 1.11457,6.455833 1.62429,9.657291 0.50972,3.201458 1.04289,6.475677 1.18482,7.276042 1.98865,11.214138 1.05436,26.482889 -2.27464,37.173956 -0.49844,1.600729 -1.08283,3.56526 -1.29863,4.365625 -0.90598,3.35998 -5.05027,10.925438 -8.04273,14.682114 -3.35987,4.217907 -11.23471,11.5726327 -14.30361,13.3588929 -1.25714,0.7317253 -1.09689,0.7025607 19.70926,-3.586894 2.47385,-0.5100169 5.50994,-1.1162609 6.74687,-1.3472089 3.40971,-0.636632 28.88284,-6.169077 29.14208,-6.329296 0.12467,-0.07705 0.22667,-0.317569 0.22667,-0.534488 0,-2.885424 10.18672,-5.475074 11.85578,-3.013954 0.34541,0.509323 0.76596,0.910021 0.93455,0.890441 0.60964,-0.0708 11.4697,-2.514329 26.76488,-6.022135 15.93583,-3.654735 18.79677,-4.489361 20.90766,-6.099417 0.48683,-0.371326 0.98239,-0.677786 1.10124,-0.681022 0.11885,-0.0032 0.51375,-0.238713 0.87755,-0.523283 1.39512,-1.091278 1.66193,-0.495782 0.79722,1.779298 -2.36962,6.234521 -0.62006,13.345762 4.52167,18.378697 3.15096,3.084287 2.9489,3.6545035 -1.29501,3.6545035 -1.3851,0 -4.45373,0.531813 -8.65409,1.4998088 -6.06147,1.3969016 -31.67598,7.0206549 -38.43072,8.43759719 -2.10715,0.44201631 -2.18281,0.48364551 -2.18281,1.20091661 0,3.3206546 -9.20698,5.786418 -11.66489,3.1240266 l -1.00027,-1.0834832 -8.94711,1.7674208 c -21.07448,4.1630733 -26.22638,5.1751687 -27.60023,5.4220877 -0.80037,0.143848 -2.64584,0.494087 -4.10104,0.778308 -12.57931,2.456905 -24.60296,4.138438 -26.75151,3.741257 -2.6721,-0.493965 -2.58582,-0.549386 -2.39196,1.536457 0.56055,6.031243 2.41341,12.850574 5.34045,19.655147 1.98955,4.625151 2.00639,4.816593 0.21141,2.403231 z m -57.1126,-63.048819 c -0.44114,-0.97826 -0.48649,-1.92443 -0.49153,-10.255301 -0.0214,-35.236044 25.99777,-73.495603 53.04522,-94.443143 l 1.69599,-1.3135 -1.56741,1.84266 c -0.86208,1.01347 -17.97554,17.3007 -21.20952,20.57492 -8.75062,8.859493 -11.50703,12.223282 -16.99566,20.740688 -5.11811,7.942419 -9.83671,21.870299 -11.79722,34.821806 -1.1868,7.840198 -1.69471,13.807054 -1.90312,22.357291 -0.18243,7.484626 -0.13075,7.107145 -0.77675,5.674579 z M 446.40816,-54.22206 c -6.03717,-1.349699 -5.38071,-1.976525 3.04436,-2.906945 6.60681,-0.72962 9.91495,-1.633521 14.23335,-3.889049 2.39728,-1.252114 3.59476,-2.121079 8.67765,-6.297051 5.53209,-4.545022 5.99832,-2.897866 0.9218,3.256639 -6.42391,7.788 -17.65473,11.898216 -26.87716,9.836406 z m 65.64286,-2.055656 c 0,-1.803803 3.03074,-5.478399 4.51848,-5.478399 0.88096,0 0.55966,0.631086 -1.0367,2.036257 -1.08941,0.958939 -1.73337,1.794557 -2.18281,2.832468 -0.72054,1.663967 -1.29897,1.935456 -1.29897,0.609674 z m 13.38741,-5.544545 c 0.61288,-6.989863 0.13085,-10.268242 -1.77814,-12.093483 -0.62907,-0.601467 -0.62907,-0.601467 0.16531,-0.201132 2.18429,1.100802 5.01896,8.855279 4.08327,11.170136 -0.17651,0.436674 -0.21683,0.381596 -0.23067,-0.315115 -0.0331,-1.66586 -0.49621,-1.087399 -1.20838,1.509346 -0.95507,3.48239 -1.34056,3.456319 -1.03139,-0.06975 z m -95.40824,-6.103903 c 0,-0.547072 1.41808,-3.545083 2.7189,-5.748118 4.88932,-8.280407 9.30775,-12.291705 18.05089,-16.387611 4.28499,-2.007394 12.06081,-3.555604 13.57224,-3.738024 1.42658,-0.17218 4.25389,-0.504659 4.82295,2.134818 0.15648,0.725784 -8.49747,2.393293 -12.17748,3.62694 -10.07828,3.378524 -18.72075,9.533517 -25.01528,17.815377 -1.73377,2.281154 -1.97222,2.558832 -1.97222,2.296618 z m 80.8302,-10.80979 c -2.01628,-0.347969 -2.25292,-0.357202 -2.97656,-0.116144 -0.41598,0.138571 -0.5963,0.09331 -0.59859,-0.150249 -0.002,-0.191708 -0.43224,-0.62654 -0.95653,-0.966294 -1.53206,-0.992806 -0.90175,-1.195621 4.33756,-1.3957 5.98022,-0.228373 8.75201,-0.792298 10.828,-2.20297 0.88429,-0.60089 1.01255,-0.621101 1.69666,-0.267334 1.79899,0.930294 4.95819,0.273842 6.90398,-1.43458 1.53463,-1.347426 1.93411,-1.060099 1.01928,0.733122 -1.09524,2.146839 -4.76751,4.523738 -6.9891,4.523738 -0.28775,0 -1.30643,0.320856 -2.26373,0.713013 -1.97421,0.80873 -7.83901,1.109087 -11.00097,0.563398 z m 3.57188,-21.927916 c -3.86443,-3.42925 -8.71796,-3.52101 -14.71484,-0.27821 -1.47011,0.79495 -2.1811,0.84361 -2.22567,-0.42084 -0.19692,-5.58679 10.4979,-6.17064 13.37479,-4.18925 2.05955,1.41847 5.84747,6.106759 4.80954,5.952744 -0.0293,-0.0043 -0.58899,-0.483344 -1.24383,-1.064444 z"
         id="path6" /><path
         style="fill:#8a4e32"
         d="m 391.26873,14.832532 c -1.01864,-0.195873 -2.23904,-0.363449 -2.71198,-0.372392 -1.65585,-0.03131 -2.01874,-0.767026 -1.82088,-3.691606 0.45345,-6.7026839 3.8609,-12.9158505 8.10474,-14.7782289 0.80036,-0.3512347 1.69333,-0.7448009 1.98437,-0.8745916 0.29104,-0.1297907 3.50573,-0.8322945 7.14375,-1.5611195 3.63802,-0.7288251 9.53161,-1.9276158 13.09687,-2.6639794 3.56526,-0.7363636 8.80401,-1.8129256 11.64167,-2.3923606 12.52855,-2.558264 26.00793,-5.679507 26.20936,-6.068955 0.1129,-0.218281 0.35094,-0.789443 0.52897,-1.269248 0.85728,-2.310346 10.19532,-3.905404 11.2235,-1.917119 0.58198,1.125436 -0.26748,1.260746 17.33608,-2.761445 4.87495,-1.113864 12.49495,-2.853981 16.93334,-3.866928 10.11177,-2.307752 11.97825,-2.893192 14.9072,-4.675808 2.74777,-1.672345 2.79403,-1.660375 1.99549,0.516311 -2.17426,5.92663 -0.35341,13.358375 4.44962,18.161026 2.70928,2.709076 2.75415,2.857148 0.93266,3.078063 -2.69884,0.3273241 -6.66627,1.0262058 -9.1881,1.6185269 -6.26197,1.4707968 -24.07426,5.4167647 -35.32187,7.82487452 -7.60931,1.62914988 -6.73496,1.31006877 -6.83256,2.49345248 -0.14413,1.7476105 -1.17631,2.5019212 -4.3358,3.1685792 -5.00941,1.0569942 -5.89225,0.9864344 -7.22281,-0.5772677 l -0.79638,-0.9359225 -8.33174,1.6154081 c -4.58247,0.8884745 -12.49894,2.4381284 -17.59217,3.4436753 -5.09323,1.005547 -10.33198,2.0234787 -11.64166,2.2620707 -1.30969,0.238591 -3.22129,0.600311 -4.248,0.803822 -2.45015,0.485657 -17.15225,2.922044 -19.69679,3.264091 -3.6244,0.487204 -4.87821,0.516394 -6.74688,0.157071 z m 167.34895,-32.617247 c 0,-1.842975 -1.37307,-2.060517 -4.94645,-0.783685 -1.97506,0.705724 -2.09492,0.626216 -1.42211,-0.943364 2.34016,-5.459385 1.60236,-12.157192 -1.90797,-17.320708 -1.23838,-1.821601 -1.28543,-1.951823 -0.82644,-2.287442 0.46807,-0.342261 0.46955,-0.444795 0.0388,-2.679307 -0.65202,-3.382197 -1.48467,-3.121319 9.45782,-2.963235 12.58334,0.181788 11.29205,-0.634806 13.75331,8.6974 0.93646,3.550698 1.88696,6.976799 2.11223,7.613558 1.35959,3.843096 -1.25219,5.982757 -12.52933,10.264457 -3.5797,1.359142 -3.72984,1.375337 -3.72984,0.402326 z M 448.68789,-54.094436 c -2.21662,-0.251045 -5.56093,-1.148318 -5.81555,-1.560301 -0.19841,-0.321041 1.83453,-0.707324 6.34014,-1.204705 10.08512,-1.113312 14.36491,-2.886137 21.66317,-8.973564 4.90198,-4.088705 6.86683,-4.94334 5.12435,-2.228898 -6.35122,9.893963 -16.67279,15.172432 -27.31211,13.967468 z m 64.68604,-24.604499 c -2.61585,-0.17448 -4.67525,-0.619532 -6.35,-1.372279 -1.59548,-0.717122 -1.04916,-0.897512 2.91042,-0.960988 5.27149,-0.08451 9.35024,-0.833745 11.21041,-2.059271 0.75634,-0.498298 1.2058,-0.62695 1.71979,-0.492267 2.64956,0.694284 4.82231,0.347239 6.84951,-1.094045 1.60181,-1.138845 1.77939,-1.120357 1.14691,0.119406 -1.07045,2.098247 -3.52725,3.735386 -6.38447,4.254422 -0.7949,0.1444 -2.27871,0.553832 -3.29736,0.90985 -2.049,0.716125 -4.37936,0.92368 -7.80521,0.695172 z"
         id="path5" /><path
         style="fill:#693923"
         d="m 390.73956,14.425663 c -0.58208,-0.140745 -1.56112,-0.328407 -2.17564,-0.417027 -1.40403,-0.202473 -1.51236,-0.51124 -1.27736,-3.640846 0.63784,-8.4947593 4.85308,-13.8891329 12.18425,-15.59259 1.89545,-0.4404212 12.82638,-2.6564938 18.52084,-3.7548039 1.74625,-0.3368055 4.54421,-0.9127124 6.2177,-1.2797931 1.67349,-0.367081 3.99521,-0.859998 5.15938,-1.095371 3.95593,-0.799817 23.78051,-5.192344 25.19025,-5.581398 0.374,-0.103216 0.6947,-0.507912 0.89186,-1.125457 0.49498,-1.550407 0.75419,-1.548461 0.59392,0.0045 -0.38486,3.728958 3.73286,20.2125729 5.43378,21.7518784 0.56726,0.5133613 3.89852,-0.035471 7.91646,-1.3042519 0.25738,-0.081275 0.21583,-0.3479533 -0.17295,-1.1100186 -2.97068,-5.8230061 -5.90087,-22.8198939 -3.93406,-22.8198939 0.60995,0 0.82584,0.175461 1.13946,0.926042 0.54254,1.298497 0.56239,1.295895 14.1283,-1.852298 3.55984,-0.82612 9.09625,-2.083223 12.30312,-2.793564 16.04741,-3.554587 20.34196,-4.726259 22.10741,-6.031507 2.6491,-1.958566 3.2868,-1.900263 2.59974,0.237684 -2.00475,6.238291 -0.34217,12.875778 4.4247,17.664603 2.77021,2.782962 2.77467,2.736905 -0.29963,3.093248 -2.55971,0.2966977 -5.80622,0.8807382 -8.12737,1.4621 -1.19579,0.2995001 -3.48385,0.8288173 -5.08458,1.1762604 -1.60073,0.3474432 -7.19666,1.587391 -12.43541,2.7554397 -5.23875,1.1680488 -12.62063,2.7836464 -16.40417,3.5902171 -8.10914,1.72869556 -8.06979,1.71503309 -8.06979,2.8022454 0,1.778233 -0.85976,2.3261816 -4.99006,3.1803109 -3.74733,0.7749307 -4.85369,0.7078411 -5.7349,-0.3477619 -0.3948,-0.4729427 -0.87981,-0.9540876 -1.07779,-1.0692109 -0.35189,-0.2046175 -7.37756,1.0857509 -26.29725,4.8298785 -27.89404,5.5201158 -39.19237,7.1968578 -42.73021,6.3414268 z m 44.58229,-8.3482774 c 0.36381,-0.082214 2.03068,-0.3715038 3.70417,-0.6428654 1.67349,-0.2713615 4.1738,-0.7388918 5.55625,-1.0389562 1.38245,-0.3000644 3.16839,-0.6517351 3.96875,-0.7814905 0.80036,-0.1297554 2.94349,-0.5517673 4.7625,-0.9378042 1.81901,-0.3860369 3.70366,-0.7708544 4.1881,-0.8551499 0.65783,-0.1144641 0.84487,-0.2608598 0.73882,-0.5782723 -1.51969,-4.5484963 -3.40199,-12.3164681 -3.74137,-15.4401111 -0.20806,-1.914975 0.0588,-1.906333 -6.69004,-0.216663 -2.86612,0.71758 -6.46129,1.55692 -7.98926,1.865201 -1.52797,0.308281 -3.19484,0.667975 -3.70417,0.79932 -0.50932,0.131346 -1.93807,0.487367 -3.175,0.79116 -3.08151,0.756827 -31.01264,6.0612583 -37.34229,8.9113453 -6.32964,2.85008694 -7.76793,13.5228097 -5.63672,15.0812037 0.45932,0.335861 43.84141,-6.6136717 45.36028,-6.9569172 z m 37.57083,-7.2404439 c 0.80037,-0.1485236 3.59834,-0.7452131 6.21771,-1.3259767 2.61938,-0.5807635 7.85813,-1.7198494 11.64167,-2.5313019 6.33302,-1.3582368 13.41856,-2.9676261 21.43125,-4.8678334 1.74625,-0.4141227 3.87165,-0.9049967 4.72311,-1.0908317 1.88405,-0.411201 2.05836,-0.757132 0.99297,-1.970546 -3.15691,-3.595522 -4.09677,-11.222997 -2.01206,-16.328965 0.12865,-0.315091 0.0664,-0.463021 -0.19485,-0.463021 -0.66253,0 -7.81879,1.508307 -12.37271,2.607764 -4.15558,1.003283 -7.53663,1.793101 -12.83229,2.997639 -1.30969,0.297898 -3.92907,0.932679 -5.82084,1.410623 -1.89177,0.477945 -5.16599,1.238951 -7.27604,1.691124 -2.11005,0.452173 -4.43177,0.995982 -5.15937,1.208465 -0.72761,0.212482 -1.73964,0.459443 -2.24896,0.548801 -1.75937,0.308673 -3.70417,1.010427 -3.70417,1.336597 0,0.331794 3.8677,16.3483869 4.10293,16.99066647 0.0712,0.19447735 0.33336,0.28430664 0.59212,0.20290578 0.25538,-0.0803367 1.11917,-0.26758595 1.91953,-0.41610955 z m 13.87479,-11.7644797 c -0.72357,-1.104302 0.0969,-2.526497 1.45755,-2.526497 0.88238,0 1.40256,0.543256 1.40256,1.464791 0,1.579679 -2.02757,2.332334 -2.86011,1.061706 z m 72.11479,-5.143018 c 0,-1.942925 -0.78907,-2.070203 -4.88002,-0.787152 -2.08575,0.654158 -2.091,0.652233 -1.48138,-0.542731 0.55441,-1.086728 0.67113,-1.138897 3.3187,-1.483314 1.70286,-0.221523 5.33032,-1.229043 11.74642,-3.262552 2.82252,-0.894564 5.39939,-1.626479 5.72638,-1.626479 0.95704,0 0.93588,-0.528018 -0.18176,-4.535877 -0.5826,-2.089174 -1.5852,-5.693219 -2.22802,-8.008989 -1.61468,-5.816925 -1.46775,-5.71055 -5.90975,-4.278421 -2.64849,0.853891 -3.99648,1.231829 -11.00536,3.08557 -4.28037,1.132094 -3.9663,1.295469 -3.98204,-2.071414 -0.0164,-3.507294 -1.20714,-3.134131 9.44579,-2.960134 11.87617,0.193978 10.88017,-0.350185 12.63541,6.903337 0.57567,2.378917 1.47159,5.793341 1.99094,7.587609 0.51935,1.794268 0.94428,3.572328 0.94428,3.951244 0,1.784729 -4.78808,4.738507 -12.30246,7.589418 -3.75043,1.422891 -3.83713,1.432829 -3.83713,0.439885 z M 448.3648,-54.345616 c -1.85428,-0.262091 -4.57628,-1.061483 -4.57628,-1.343956 0,-0.248817 1.03154,-0.426618 5.29167,-0.912103 10.46612,-1.192719 14.51535,-2.820743 21.41474,-8.609968 5.71187,-4.792781 7.08043,-5.372254 4.63367,-1.961973 -6.76297,9.426168 -16.79896,14.236463 -26.7638,12.828 z m 61.76799,-25.044958 c -2.26215,-0.781716 -1.23206,-1.32697 2.84427,-1.505552 3.53408,-0.154827 6.14399,-0.738608 8.02952,-1.796036 1.22968,-0.68962 1.52064,-0.756664 2.22229,-0.512066 1.81423,0.632445 4.07706,0.247617 6.10453,-1.038164 1.54954,-0.98269 1.6135,-0.984395 1.11989,-0.02986 -0.90587,1.751764 -4.23003,3.730723 -6.26669,3.730723 -0.44503,0 -1.12517,0.17024 -1.51143,0.378311 -1.55052,0.83525 -2.70838,1.021395 -6.91999,1.112502 -3.54192,0.07662 -4.60275,0.0125 -5.62239,-0.339856 z"
         id="path4" /></g></g></svg>
